<mxfile host="app.diagrams.net" agent="Mozilla/5.0 (Windows NT 10.0; Win64; x64) AppleWebKit/537.36 (KHTML, like Gecko) Chrome/131.0.0.0 Safari/537.36 OPR/116.0.0.0" version="26.1.0">
  <diagram name="Page-1" id="U4V6xatmF68YJFIn0LP2">
    <mxGraphModel dx="3093" dy="1776" grid="1" gridSize="10" guides="1" tooltips="1" connect="1" arrows="1" fold="1" page="1" pageScale="1" pageWidth="1700" pageHeight="1100" background="#ffffff" math="0" shadow="1">
      <root>
        <mxCell id="0" />
        <mxCell id="1" parent="0" />
        <mxCell id="KEaNiY5kpgW1-jal7auj-26" value="" style="curved=1;endArrow=classic;html=1;rounded=0;hachureGap=4;fontFamily=Architects Daughter;fontSource=https%3A%2F%2Ffonts.googleapis.com%2Fcss%3Ffamily%3DArchitects%2BDaughter;exitX=1;exitY=0.5;exitDx=0;exitDy=0;entryX=1.017;entryY=0.647;entryDx=0;entryDy=0;entryPerimeter=0;sketch=1;curveFitting=1;jiggle=2;labelBackgroundColor=none;fontColor=default;" parent="1" source="KEaNiY5kpgW1-jal7auj-17" edge="1">
          <mxGeometry width="50" height="50" relative="1" as="geometry">
            <mxPoint x="910" y="80" as="sourcePoint" />
            <mxPoint x="701.3599999999997" y="-168.24000000000024" as="targetPoint" />
            <Array as="points">
              <mxPoint x="960" y="80" />
              <mxPoint x="830" y="-90" />
            </Array>
          </mxGeometry>
        </mxCell>
        <mxCell id="KEaNiY5kpgW1-jal7auj-27" value="&lt;b&gt;User Cancels Transaction&lt;/b&gt;" style="edgeLabel;html=1;align=center;verticalAlign=middle;resizable=0;points=[];hachureGap=4;fontFamily=Architects Daughter;fontSource=https%3A%2F%2Ffonts.googleapis.com%2Fcss%3Ffamily%3DArchitects%2BDaughter;sketch=1;curveFitting=1;jiggle=2;labelBackgroundColor=none;" parent="KEaNiY5kpgW1-jal7auj-26" vertex="1" connectable="0">
          <mxGeometry x="0.1182" y="8" relative="1" as="geometry">
            <mxPoint as="offset" />
          </mxGeometry>
        </mxCell>
        <mxCell id="KEaNiY5kpgW1-jal7auj-91" value="" style="curved=1;endArrow=classic;html=1;rounded=0;hachureGap=4;fontFamily=Architects Daughter;fontSource=https%3A%2F%2Ffonts.googleapis.com%2Fcss%3Ffamily%3DArchitects%2BDaughter;exitX=1;exitY=0.5;exitDx=0;exitDy=0;entryX=1;entryY=1;entryDx=0;entryDy=0;sketch=1;curveFitting=1;jiggle=2;labelBackgroundColor=none;fontColor=default;" parent="1" source="KEaNiY5kpgW1-jal7auj-72" edge="1">
          <mxGeometry width="50" height="50" relative="1" as="geometry">
            <mxPoint x="310" y="870" as="sourcePoint" />
            <mxPoint x="-161.71572875253787" y="758.2842712474621" as="targetPoint" />
            <Array as="points">
              <mxPoint x="680" y="580" />
              <mxPoint x="980" y="750" />
              <mxPoint x="320" y="880" />
            </Array>
          </mxGeometry>
        </mxCell>
        <mxCell id="k-KUDZji_HKv26gU6EQP-1" value="&lt;b&gt;IDLE&lt;/b&gt;" style="ellipse;whiteSpace=wrap;html=1;aspect=fixed;sketch=1;curveFitting=1;jiggle=2;labelBackgroundColor=none;" vertex="1" parent="1">
          <mxGeometry x="510" y="200" width="80" height="80" as="geometry" />
        </mxCell>
        <mxCell id="k-KUDZji_HKv26gU6EQP-2" value="" style="endArrow=classic;html=1;rounded=0;sketch=1;hachureGap=4;jiggle=2;curveFitting=1;fontFamily=Architects Daughter;fontSource=https%3A%2F%2Ffonts.googleapis.com%2Fcss%3Ffamily%3DArchitects%2BDaughter;fontColor=default;exitX=1;exitY=0.5;exitDx=0;exitDy=0;entryX=0;entryY=0.5;entryDx=0;entryDy=0;labelBackgroundColor=none;" edge="1" parent="1" source="k-KUDZji_HKv26gU6EQP-1" target="k-KUDZji_HKv26gU6EQP-3">
          <mxGeometry width="50" height="50" relative="1" as="geometry">
            <mxPoint x="740" y="170" as="sourcePoint" />
            <mxPoint x="780" y="240" as="targetPoint" />
          </mxGeometry>
        </mxCell>
        <mxCell id="k-KUDZji_HKv26gU6EQP-8" style="edgeStyle=orthogonalEdgeStyle;rounded=0;sketch=1;hachureGap=4;jiggle=2;curveFitting=1;orthogonalLoop=1;jettySize=auto;html=1;exitX=0.5;exitY=1;exitDx=0;exitDy=0;entryX=0.5;entryY=0;entryDx=0;entryDy=0;fontFamily=Architects Daughter;fontSource=https%3A%2F%2Ffonts.googleapis.com%2Fcss%3Ffamily%3DArchitects%2BDaughter;" edge="1" parent="1" source="k-KUDZji_HKv26gU6EQP-3" target="k-KUDZji_HKv26gU6EQP-7">
          <mxGeometry relative="1" as="geometry" />
        </mxCell>
        <mxCell id="k-KUDZji_HKv26gU6EQP-9" value="Yes" style="edgeLabel;html=1;align=center;verticalAlign=middle;resizable=0;points=[];sketch=1;hachureGap=4;jiggle=2;curveFitting=1;fontFamily=Architects Daughter;fontSource=https%3A%2F%2Ffonts.googleapis.com%2Fcss%3Ffamily%3DArchitects%2BDaughter;" vertex="1" connectable="0" parent="k-KUDZji_HKv26gU6EQP-8">
          <mxGeometry x="-0.1091" relative="1" as="geometry">
            <mxPoint as="offset" />
          </mxGeometry>
        </mxCell>
        <mxCell id="k-KUDZji_HKv26gU6EQP-3" value="Are Coins Being Inputted?" style="ellipse;whiteSpace=wrap;html=1;aspect=fixed;sketch=1;hachureGap=4;jiggle=2;curveFitting=1;fontFamily=Architects Daughter;fontSource=https%3A%2F%2Ffonts.googleapis.com%2Fcss%3Ffamily%3DArchitects%2BDaughter;labelBackgroundColor=none;" vertex="1" parent="1">
          <mxGeometry x="780" y="200" width="80" height="80" as="geometry" />
        </mxCell>
        <mxCell id="k-KUDZji_HKv26gU6EQP-4" style="edgeStyle=orthogonalEdgeStyle;rounded=0;sketch=1;hachureGap=4;jiggle=2;curveFitting=1;orthogonalLoop=1;jettySize=auto;html=1;exitX=0.5;exitY=0;exitDx=0;exitDy=0;entryX=0.375;entryY=0;entryDx=0;entryDy=0;entryPerimeter=0;fontFamily=Architects Daughter;fontSource=https%3A%2F%2Ffonts.googleapis.com%2Fcss%3Ffamily%3DArchitects%2BDaughter;fontColor=default;labelBackgroundColor=none;" edge="1" parent="1" source="k-KUDZji_HKv26gU6EQP-3" target="k-KUDZji_HKv26gU6EQP-1">
          <mxGeometry relative="1" as="geometry" />
        </mxCell>
        <mxCell id="k-KUDZji_HKv26gU6EQP-6" value="No" style="edgeLabel;html=1;align=center;verticalAlign=middle;resizable=0;points=[];sketch=1;hachureGap=4;jiggle=2;curveFitting=1;fontFamily=Architects Daughter;fontSource=https%3A%2F%2Ffonts.googleapis.com%2Fcss%3Ffamily%3DArchitects%2BDaughter;" vertex="1" connectable="0" parent="k-KUDZji_HKv26gU6EQP-4">
          <mxGeometry x="0.0043" y="1" relative="1" as="geometry">
            <mxPoint as="offset" />
          </mxGeometry>
        </mxCell>
        <mxCell id="k-KUDZji_HKv26gU6EQP-11" style="edgeStyle=orthogonalEdgeStyle;rounded=0;sketch=1;hachureGap=4;jiggle=2;curveFitting=1;orthogonalLoop=1;jettySize=auto;html=1;exitX=1;exitY=0.5;exitDx=0;exitDy=0;entryX=1;entryY=0.5;entryDx=0;entryDy=0;fontFamily=Architects Daughter;fontSource=https%3A%2F%2Ffonts.googleapis.com%2Fcss%3Ffamily%3DArchitects%2BDaughter;" edge="1" parent="1" source="k-KUDZji_HKv26gU6EQP-7" target="k-KUDZji_HKv26gU6EQP-3">
          <mxGeometry relative="1" as="geometry" />
        </mxCell>
        <mxCell id="k-KUDZji_HKv26gU6EQP-12" value="No" style="edgeLabel;html=1;align=center;verticalAlign=middle;resizable=0;points=[];sketch=1;hachureGap=4;jiggle=2;curveFitting=1;fontFamily=Architects Daughter;fontSource=https%3A%2F%2Ffonts.googleapis.com%2Fcss%3Ffamily%3DArchitects%2BDaughter;" vertex="1" connectable="0" parent="k-KUDZji_HKv26gU6EQP-11">
          <mxGeometry x="-0.0435" y="-1" relative="1" as="geometry">
            <mxPoint as="offset" />
          </mxGeometry>
        </mxCell>
        <mxCell id="k-KUDZji_HKv26gU6EQP-14" style="edgeStyle=orthogonalEdgeStyle;rounded=0;sketch=1;hachureGap=4;jiggle=2;curveFitting=1;orthogonalLoop=1;jettySize=auto;html=1;exitX=0.5;exitY=1;exitDx=0;exitDy=0;entryX=0.5;entryY=0;entryDx=0;entryDy=0;fontFamily=Architects Daughter;fontSource=https%3A%2F%2Ffonts.googleapis.com%2Fcss%3Ffamily%3DArchitects%2BDaughter;" edge="1" parent="1" source="k-KUDZji_HKv26gU6EQP-7" target="k-KUDZji_HKv26gU6EQP-10">
          <mxGeometry relative="1" as="geometry" />
        </mxCell>
        <mxCell id="k-KUDZji_HKv26gU6EQP-15" value="Yes" style="edgeLabel;html=1;align=center;verticalAlign=middle;resizable=0;points=[];sketch=1;hachureGap=4;jiggle=2;curveFitting=1;fontFamily=Architects Daughter;fontSource=https%3A%2F%2Ffonts.googleapis.com%2Fcss%3Ffamily%3DArchitects%2BDaughter;" vertex="1" connectable="0" parent="k-KUDZji_HKv26gU6EQP-14">
          <mxGeometry x="-0.1021" y="3" relative="1" as="geometry">
            <mxPoint x="-3" as="offset" />
          </mxGeometry>
        </mxCell>
        <mxCell id="k-KUDZji_HKv26gU6EQP-7" value="Payment Confirmed?" style="ellipse;whiteSpace=wrap;html=1;aspect=fixed;sketch=1;hachureGap=4;jiggle=2;curveFitting=1;fontFamily=Architects Daughter;fontSource=https%3A%2F%2Ffonts.googleapis.com%2Fcss%3Ffamily%3DArchitects%2BDaughter;" vertex="1" parent="1">
          <mxGeometry x="780" y="390" width="80" height="80" as="geometry" />
        </mxCell>
        <mxCell id="k-KUDZji_HKv26gU6EQP-17" style="edgeStyle=orthogonalEdgeStyle;rounded=0;sketch=1;hachureGap=4;jiggle=2;curveFitting=1;orthogonalLoop=1;jettySize=auto;html=1;exitX=1;exitY=0.5;exitDx=0;exitDy=0;entryX=0;entryY=0.5;entryDx=0;entryDy=0;fontFamily=Architects Daughter;fontSource=https%3A%2F%2Ffonts.googleapis.com%2Fcss%3Ffamily%3DArchitects%2BDaughter;" edge="1" parent="1" source="k-KUDZji_HKv26gU6EQP-10" target="k-KUDZji_HKv26gU6EQP-16">
          <mxGeometry relative="1" as="geometry" />
        </mxCell>
        <mxCell id="k-KUDZji_HKv26gU6EQP-10" value="Count Coins" style="ellipse;whiteSpace=wrap;html=1;aspect=fixed;sketch=1;hachureGap=4;jiggle=2;curveFitting=1;fontFamily=Architects Daughter;fontSource=https%3A%2F%2Ffonts.googleapis.com%2Fcss%3Ffamily%3DArchitects%2BDaughter;" vertex="1" parent="1">
          <mxGeometry x="780" y="520" width="80" height="80" as="geometry" />
        </mxCell>
        <mxCell id="k-KUDZji_HKv26gU6EQP-19" style="edgeStyle=orthogonalEdgeStyle;rounded=0;sketch=1;hachureGap=4;jiggle=2;curveFitting=1;orthogonalLoop=1;jettySize=auto;html=1;exitX=0.5;exitY=0;exitDx=0;exitDy=0;entryX=0.5;entryY=1;entryDx=0;entryDy=0;fontFamily=Architects Daughter;fontSource=https%3A%2F%2Ffonts.googleapis.com%2Fcss%3Ffamily%3DArchitects%2BDaughter;" edge="1" parent="1" source="k-KUDZji_HKv26gU6EQP-16" target="k-KUDZji_HKv26gU6EQP-18">
          <mxGeometry relative="1" as="geometry" />
        </mxCell>
        <mxCell id="k-KUDZji_HKv26gU6EQP-20" value="No" style="edgeLabel;html=1;align=center;verticalAlign=middle;resizable=0;points=[];sketch=1;hachureGap=4;jiggle=2;curveFitting=1;fontFamily=Architects Daughter;fontSource=https%3A%2F%2Ffonts.googleapis.com%2Fcss%3Ffamily%3DArchitects%2BDaughter;" vertex="1" connectable="0" parent="k-KUDZji_HKv26gU6EQP-19">
          <mxGeometry x="0.0061" y="-1" relative="1" as="geometry">
            <mxPoint as="offset" />
          </mxGeometry>
        </mxCell>
        <mxCell id="k-KUDZji_HKv26gU6EQP-23" style="edgeStyle=orthogonalEdgeStyle;rounded=0;sketch=1;hachureGap=4;jiggle=2;curveFitting=1;orthogonalLoop=1;jettySize=auto;html=1;exitX=1;exitY=0.5;exitDx=0;exitDy=0;entryX=0;entryY=0.5;entryDx=0;entryDy=0;fontFamily=Architects Daughter;fontSource=https%3A%2F%2Ffonts.googleapis.com%2Fcss%3Ffamily%3DArchitects%2BDaughter;" edge="1" parent="1" source="k-KUDZji_HKv26gU6EQP-16" target="k-KUDZji_HKv26gU6EQP-22">
          <mxGeometry relative="1" as="geometry" />
        </mxCell>
        <mxCell id="k-KUDZji_HKv26gU6EQP-24" value="Yes" style="edgeLabel;html=1;align=center;verticalAlign=middle;resizable=0;points=[];sketch=1;hachureGap=4;jiggle=2;curveFitting=1;fontFamily=Architects Daughter;fontSource=https%3A%2F%2Ffonts.googleapis.com%2Fcss%3Ffamily%3DArchitects%2BDaughter;" vertex="1" connectable="0" parent="k-KUDZji_HKv26gU6EQP-23">
          <mxGeometry y="-1" relative="1" as="geometry">
            <mxPoint as="offset" />
          </mxGeometry>
        </mxCell>
        <mxCell id="k-KUDZji_HKv26gU6EQP-16" value="Value &amp;gt;= $2?" style="ellipse;whiteSpace=wrap;html=1;aspect=fixed;sketch=1;hachureGap=4;jiggle=2;curveFitting=1;fontFamily=Architects Daughter;fontSource=https%3A%2F%2Ffonts.googleapis.com%2Fcss%3Ffamily%3DArchitects%2BDaughter;" vertex="1" parent="1">
          <mxGeometry x="990" y="520" width="80" height="80" as="geometry" />
        </mxCell>
        <mxCell id="k-KUDZji_HKv26gU6EQP-21" style="edgeStyle=orthogonalEdgeStyle;rounded=0;sketch=1;hachureGap=4;jiggle=2;curveFitting=1;orthogonalLoop=1;jettySize=auto;html=1;exitX=0;exitY=0.5;exitDx=0;exitDy=0;fontFamily=Architects Daughter;fontSource=https%3A%2F%2Ffonts.googleapis.com%2Fcss%3Ffamily%3DArchitects%2BDaughter;" edge="1" parent="1" source="k-KUDZji_HKv26gU6EQP-18">
          <mxGeometry relative="1" as="geometry">
            <mxPoint x="540" y="200.0000000000001" as="targetPoint" />
          </mxGeometry>
        </mxCell>
        <mxCell id="k-KUDZji_HKv26gU6EQP-18" value="Refund Coins" style="ellipse;whiteSpace=wrap;html=1;aspect=fixed;sketch=1;hachureGap=4;jiggle=2;curveFitting=1;fontFamily=Architects Daughter;fontSource=https%3A%2F%2Ffonts.googleapis.com%2Fcss%3Ffamily%3DArchitects%2BDaughter;" vertex="1" parent="1">
          <mxGeometry x="990" y="110" width="80" height="80" as="geometry" />
        </mxCell>
        <mxCell id="k-KUDZji_HKv26gU6EQP-26" style="edgeStyle=orthogonalEdgeStyle;rounded=0;sketch=1;hachureGap=4;jiggle=2;curveFitting=1;orthogonalLoop=1;jettySize=auto;html=1;exitX=1;exitY=0.5;exitDx=0;exitDy=0;entryX=0;entryY=0.5;entryDx=0;entryDy=0;fontFamily=Architects Daughter;fontSource=https%3A%2F%2Ffonts.googleapis.com%2Fcss%3Ffamily%3DArchitects%2BDaughter;" edge="1" parent="1" source="k-KUDZji_HKv26gU6EQP-22" target="k-KUDZji_HKv26gU6EQP-25">
          <mxGeometry relative="1" as="geometry" />
        </mxCell>
        <mxCell id="k-KUDZji_HKv26gU6EQP-27" value="No" style="edgeLabel;html=1;align=center;verticalAlign=middle;resizable=0;points=[];sketch=1;hachureGap=4;jiggle=2;curveFitting=1;fontFamily=Architects Daughter;fontSource=https%3A%2F%2Ffonts.googleapis.com%2Fcss%3Ffamily%3DArchitects%2BDaughter;" vertex="1" connectable="0" parent="k-KUDZji_HKv26gU6EQP-26">
          <mxGeometry x="0.0533" y="-1" relative="1" as="geometry">
            <mxPoint as="offset" />
          </mxGeometry>
        </mxCell>
        <mxCell id="k-KUDZji_HKv26gU6EQP-29" style="edgeStyle=orthogonalEdgeStyle;rounded=0;sketch=1;hachureGap=4;jiggle=2;curveFitting=1;orthogonalLoop=1;jettySize=auto;html=1;exitX=0.5;exitY=1;exitDx=0;exitDy=0;fontFamily=Architects Daughter;fontSource=https%3A%2F%2Ffonts.googleapis.com%2Fcss%3Ffamily%3DArchitects%2BDaughter;" edge="1" parent="1" source="k-KUDZji_HKv26gU6EQP-22" target="k-KUDZji_HKv26gU6EQP-28">
          <mxGeometry relative="1" as="geometry" />
        </mxCell>
        <mxCell id="k-KUDZji_HKv26gU6EQP-30" value="Yes" style="edgeLabel;html=1;align=center;verticalAlign=middle;resizable=0;points=[];sketch=1;hachureGap=4;jiggle=2;curveFitting=1;fontFamily=Architects Daughter;fontSource=https%3A%2F%2Ffonts.googleapis.com%2Fcss%3Ffamily%3DArchitects%2BDaughter;" vertex="1" connectable="0" parent="k-KUDZji_HKv26gU6EQP-29">
          <mxGeometry x="0.0123" relative="1" as="geometry">
            <mxPoint as="offset" />
          </mxGeometry>
        </mxCell>
        <mxCell id="k-KUDZji_HKv26gU6EQP-22" value="Has User Selected Regular?" style="ellipse;whiteSpace=wrap;html=1;aspect=fixed;sketch=1;hachureGap=4;jiggle=2;curveFitting=1;fontFamily=Architects Daughter;fontSource=https%3A%2F%2Ffonts.googleapis.com%2Fcss%3Ffamily%3DArchitects%2BDaughter;" vertex="1" parent="1">
          <mxGeometry x="1260" y="520" width="80" height="80" as="geometry" />
        </mxCell>
        <mxCell id="k-KUDZji_HKv26gU6EQP-32" style="edgeStyle=orthogonalEdgeStyle;rounded=0;sketch=1;hachureGap=4;jiggle=2;curveFitting=1;orthogonalLoop=1;jettySize=auto;html=1;exitX=0.5;exitY=1;exitDx=0;exitDy=0;entryX=0.5;entryY=0;entryDx=0;entryDy=0;fontFamily=Architects Daughter;fontSource=https%3A%2F%2Ffonts.googleapis.com%2Fcss%3Ffamily%3DArchitects%2BDaughter;" edge="1" parent="1" source="k-KUDZji_HKv26gU6EQP-25" target="k-KUDZji_HKv26gU6EQP-31">
          <mxGeometry relative="1" as="geometry" />
        </mxCell>
        <mxCell id="k-KUDZji_HKv26gU6EQP-33" value="Yes" style="edgeLabel;html=1;align=center;verticalAlign=middle;resizable=0;points=[];sketch=1;hachureGap=4;jiggle=2;curveFitting=1;fontFamily=Architects Daughter;fontSource=https%3A%2F%2Ffonts.googleapis.com%2Fcss%3Ffamily%3DArchitects%2BDaughter;" vertex="1" connectable="0" parent="k-KUDZji_HKv26gU6EQP-32">
          <mxGeometry x="0.0123" relative="1" as="geometry">
            <mxPoint as="offset" />
          </mxGeometry>
        </mxCell>
        <mxCell id="k-KUDZji_HKv26gU6EQP-25" value="Has User Selected Cheese?" style="ellipse;whiteSpace=wrap;html=1;aspect=fixed;sketch=1;hachureGap=4;jiggle=2;curveFitting=1;fontFamily=Architects Daughter;fontSource=https%3A%2F%2Ffonts.googleapis.com%2Fcss%3Ffamily%3DArchitects%2BDaughter;" vertex="1" parent="1">
          <mxGeometry x="1460" y="520" width="80" height="80" as="geometry" />
        </mxCell>
        <mxCell id="k-KUDZji_HKv26gU6EQP-34" style="edgeStyle=orthogonalEdgeStyle;rounded=0;sketch=1;hachureGap=4;jiggle=2;curveFitting=1;orthogonalLoop=1;jettySize=auto;html=1;exitX=1;exitY=0.5;exitDx=0;exitDy=0;fontFamily=Architects Daughter;fontSource=https%3A%2F%2Ffonts.googleapis.com%2Fcss%3Ffamily%3DArchitects%2BDaughter;entryX=0.5;entryY=0;entryDx=0;entryDy=0;" edge="1" parent="1" source="k-KUDZji_HKv26gU6EQP-28" target="k-KUDZji_HKv26gU6EQP-36">
          <mxGeometry relative="1" as="geometry">
            <mxPoint x="1400" y="860" as="targetPoint" />
          </mxGeometry>
        </mxCell>
        <mxCell id="k-KUDZji_HKv26gU6EQP-28" value="Save Choice as Regular" style="ellipse;whiteSpace=wrap;html=1;aspect=fixed;sketch=1;hachureGap=4;jiggle=2;curveFitting=1;fontFamily=Architects Daughter;fontSource=https%3A%2F%2Ffonts.googleapis.com%2Fcss%3Ffamily%3DArchitects%2BDaughter;" vertex="1" parent="1">
          <mxGeometry x="1260" y="690" width="80" height="80" as="geometry" />
        </mxCell>
        <mxCell id="k-KUDZji_HKv26gU6EQP-35" style="edgeStyle=orthogonalEdgeStyle;rounded=0;sketch=1;hachureGap=4;jiggle=2;curveFitting=1;orthogonalLoop=1;jettySize=auto;html=1;exitX=0;exitY=0.5;exitDx=0;exitDy=0;fontFamily=Architects Daughter;fontSource=https%3A%2F%2Ffonts.googleapis.com%2Fcss%3Ffamily%3DArchitects%2BDaughter;entryX=0.5;entryY=0;entryDx=0;entryDy=0;" edge="1" parent="1" source="k-KUDZji_HKv26gU6EQP-31" target="k-KUDZji_HKv26gU6EQP-36">
          <mxGeometry relative="1" as="geometry">
            <mxPoint x="1400" y="860" as="targetPoint" />
          </mxGeometry>
        </mxCell>
        <mxCell id="k-KUDZji_HKv26gU6EQP-31" value="Save Choice as Cheese" style="ellipse;whiteSpace=wrap;html=1;aspect=fixed;sketch=1;hachureGap=4;jiggle=2;curveFitting=1;fontFamily=Architects Daughter;fontSource=https%3A%2F%2Ffonts.googleapis.com%2Fcss%3Ffamily%3DArchitects%2BDaughter;" vertex="1" parent="1">
          <mxGeometry x="1460" y="690" width="80" height="80" as="geometry" />
        </mxCell>
        <mxCell id="k-KUDZji_HKv26gU6EQP-38" style="edgeStyle=orthogonalEdgeStyle;rounded=0;sketch=1;hachureGap=4;jiggle=2;curveFitting=1;orthogonalLoop=1;jettySize=auto;html=1;exitX=0;exitY=0.5;exitDx=0;exitDy=0;entryX=1;entryY=0.5;entryDx=0;entryDy=0;fontFamily=Architects Daughter;fontSource=https%3A%2F%2Ffonts.googleapis.com%2Fcss%3Ffamily%3DArchitects%2BDaughter;" edge="1" parent="1" source="k-KUDZji_HKv26gU6EQP-36" target="k-KUDZji_HKv26gU6EQP-37">
          <mxGeometry relative="1" as="geometry" />
        </mxCell>
        <mxCell id="k-KUDZji_HKv26gU6EQP-39" value="Yes" style="edgeLabel;html=1;align=center;verticalAlign=middle;resizable=0;points=[];sketch=1;hachureGap=4;jiggle=2;curveFitting=1;fontFamily=Architects Daughter;fontSource=https%3A%2F%2Ffonts.googleapis.com%2Fcss%3Ffamily%3DArchitects%2BDaughter;" vertex="1" connectable="0" parent="k-KUDZji_HKv26gU6EQP-38">
          <mxGeometry x="0.0928" y="-3" relative="1" as="geometry">
            <mxPoint as="offset" />
          </mxGeometry>
        </mxCell>
        <mxCell id="k-KUDZji_HKv26gU6EQP-41" style="edgeStyle=orthogonalEdgeStyle;rounded=0;sketch=1;hachureGap=4;jiggle=2;curveFitting=1;orthogonalLoop=1;jettySize=auto;html=1;exitX=0.5;exitY=1;exitDx=0;exitDy=0;entryX=0.5;entryY=0;entryDx=0;entryDy=0;fontFamily=Architects Daughter;fontSource=https%3A%2F%2Ffonts.googleapis.com%2Fcss%3Ffamily%3DArchitects%2BDaughter;" edge="1" parent="1" source="k-KUDZji_HKv26gU6EQP-36" target="k-KUDZji_HKv26gU6EQP-40">
          <mxGeometry relative="1" as="geometry" />
        </mxCell>
        <mxCell id="k-KUDZji_HKv26gU6EQP-42" value="No" style="edgeLabel;html=1;align=center;verticalAlign=middle;resizable=0;points=[];sketch=1;hachureGap=4;jiggle=2;curveFitting=1;fontFamily=Architects Daughter;fontSource=https%3A%2F%2Ffonts.googleapis.com%2Fcss%3Ffamily%3DArchitects%2BDaughter;" vertex="1" connectable="0" parent="k-KUDZji_HKv26gU6EQP-41">
          <mxGeometry x="-0.0164" y="-1" relative="1" as="geometry">
            <mxPoint as="offset" />
          </mxGeometry>
        </mxCell>
        <mxCell id="k-KUDZji_HKv26gU6EQP-36" value="Has User Selected Topping Relish?" style="ellipse;whiteSpace=wrap;html=1;aspect=fixed;sketch=1;hachureGap=4;jiggle=2;curveFitting=1;fontFamily=Architects Daughter;fontSource=https%3A%2F%2Ffonts.googleapis.com%2Fcss%3Ffamily%3DArchitects%2BDaughter;" vertex="1" parent="1">
          <mxGeometry x="1360" y="820" width="80" height="80" as="geometry" />
        </mxCell>
        <mxCell id="k-KUDZji_HKv26gU6EQP-43" style="edgeStyle=orthogonalEdgeStyle;rounded=0;sketch=1;hachureGap=4;jiggle=2;curveFitting=1;orthogonalLoop=1;jettySize=auto;html=1;exitX=0.5;exitY=1;exitDx=0;exitDy=0;entryX=0;entryY=0;entryDx=0;entryDy=0;fontFamily=Architects Daughter;fontSource=https%3A%2F%2Ffonts.googleapis.com%2Fcss%3Ffamily%3DArchitects%2BDaughter;" edge="1" parent="1" source="k-KUDZji_HKv26gU6EQP-37" target="k-KUDZji_HKv26gU6EQP-40">
          <mxGeometry relative="1" as="geometry" />
        </mxCell>
        <mxCell id="k-KUDZji_HKv26gU6EQP-37" value="Add Topping Choice Relish" style="ellipse;whiteSpace=wrap;html=1;aspect=fixed;sketch=1;hachureGap=4;jiggle=2;curveFitting=1;fontFamily=Architects Daughter;fontSource=https%3A%2F%2Ffonts.googleapis.com%2Fcss%3Ffamily%3DArchitects%2BDaughter;" vertex="1" parent="1">
          <mxGeometry x="1150" y="820" width="80" height="80" as="geometry" />
        </mxCell>
        <mxCell id="k-KUDZji_HKv26gU6EQP-45" style="edgeStyle=orthogonalEdgeStyle;rounded=0;sketch=1;hachureGap=4;jiggle=2;curveFitting=1;orthogonalLoop=1;jettySize=auto;html=1;exitX=0.5;exitY=1;exitDx=0;exitDy=0;fontFamily=Architects Daughter;fontSource=https%3A%2F%2Ffonts.googleapis.com%2Fcss%3Ffamily%3DArchitects%2BDaughter;" edge="1" parent="1" source="k-KUDZji_HKv26gU6EQP-40" target="k-KUDZji_HKv26gU6EQP-44">
          <mxGeometry relative="1" as="geometry" />
        </mxCell>
        <mxCell id="k-KUDZji_HKv26gU6EQP-46" value="No" style="edgeLabel;html=1;align=center;verticalAlign=middle;resizable=0;points=[];sketch=1;hachureGap=4;jiggle=2;curveFitting=1;fontFamily=Architects Daughter;fontSource=https%3A%2F%2Ffonts.googleapis.com%2Fcss%3Ffamily%3DArchitects%2BDaughter;" vertex="1" connectable="0" parent="k-KUDZji_HKv26gU6EQP-45">
          <mxGeometry x="0.0576" relative="1" as="geometry">
            <mxPoint as="offset" />
          </mxGeometry>
        </mxCell>
        <mxCell id="k-KUDZji_HKv26gU6EQP-48" style="edgeStyle=orthogonalEdgeStyle;rounded=0;sketch=1;hachureGap=4;jiggle=2;curveFitting=1;orthogonalLoop=1;jettySize=auto;html=1;exitX=0;exitY=0.5;exitDx=0;exitDy=0;entryX=1;entryY=0.5;entryDx=0;entryDy=0;fontFamily=Architects Daughter;fontSource=https%3A%2F%2Ffonts.googleapis.com%2Fcss%3Ffamily%3DArchitects%2BDaughter;" edge="1" parent="1" source="k-KUDZji_HKv26gU6EQP-40" target="k-KUDZji_HKv26gU6EQP-47">
          <mxGeometry relative="1" as="geometry" />
        </mxCell>
        <mxCell id="k-KUDZji_HKv26gU6EQP-49" value="Yes" style="edgeLabel;html=1;align=center;verticalAlign=middle;resizable=0;points=[];sketch=1;hachureGap=4;jiggle=2;curveFitting=1;fontFamily=Architects Daughter;fontSource=https%3A%2F%2Ffonts.googleapis.com%2Fcss%3Ffamily%3DArchitects%2BDaughter;" vertex="1" connectable="0" parent="k-KUDZji_HKv26gU6EQP-48">
          <mxGeometry x="0.0128" y="-1" relative="1" as="geometry">
            <mxPoint as="offset" />
          </mxGeometry>
        </mxCell>
        <mxCell id="k-KUDZji_HKv26gU6EQP-40" value="Has User Selected Topping Ketchup" style="ellipse;whiteSpace=wrap;html=1;aspect=fixed;sketch=1;hachureGap=4;jiggle=2;curveFitting=1;fontFamily=Architects Daughter;fontSource=https%3A%2F%2Ffonts.googleapis.com%2Fcss%3Ffamily%3DArchitects%2BDaughter;" vertex="1" parent="1">
          <mxGeometry x="1360" y="980" width="80" height="80" as="geometry" />
        </mxCell>
        <mxCell id="k-KUDZji_HKv26gU6EQP-52" style="edgeStyle=orthogonalEdgeStyle;rounded=0;sketch=1;hachureGap=4;jiggle=2;curveFitting=1;orthogonalLoop=1;jettySize=auto;html=1;exitX=0;exitY=0.5;exitDx=0;exitDy=0;entryX=1;entryY=0.5;entryDx=0;entryDy=0;fontFamily=Architects Daughter;fontSource=https%3A%2F%2Ffonts.googleapis.com%2Fcss%3Ffamily%3DArchitects%2BDaughter;" edge="1" parent="1" source="k-KUDZji_HKv26gU6EQP-44" target="k-KUDZji_HKv26gU6EQP-51">
          <mxGeometry relative="1" as="geometry" />
        </mxCell>
        <mxCell id="k-KUDZji_HKv26gU6EQP-53" value="Yes" style="edgeLabel;html=1;align=center;verticalAlign=middle;resizable=0;points=[];sketch=1;hachureGap=4;jiggle=2;curveFitting=1;fontFamily=Architects Daughter;fontSource=https%3A%2F%2Ffonts.googleapis.com%2Fcss%3Ffamily%3DArchitects%2BDaughter;" vertex="1" connectable="0" parent="k-KUDZji_HKv26gU6EQP-52">
          <mxGeometry x="0.0128" y="2" relative="1" as="geometry">
            <mxPoint as="offset" />
          </mxGeometry>
        </mxCell>
        <mxCell id="k-KUDZji_HKv26gU6EQP-55" style="edgeStyle=orthogonalEdgeStyle;rounded=0;sketch=1;hachureGap=4;jiggle=2;curveFitting=1;orthogonalLoop=1;jettySize=auto;html=1;exitX=0.5;exitY=1;exitDx=0;exitDy=0;entryX=0.5;entryY=0;entryDx=0;entryDy=0;fontFamily=Architects Daughter;fontSource=https%3A%2F%2Ffonts.googleapis.com%2Fcss%3Ffamily%3DArchitects%2BDaughter;" edge="1" parent="1" source="k-KUDZji_HKv26gU6EQP-44" target="k-KUDZji_HKv26gU6EQP-54">
          <mxGeometry relative="1" as="geometry" />
        </mxCell>
        <mxCell id="k-KUDZji_HKv26gU6EQP-56" value="No" style="edgeLabel;html=1;align=center;verticalAlign=middle;resizable=0;points=[];sketch=1;hachureGap=4;jiggle=2;curveFitting=1;fontFamily=Architects Daughter;fontSource=https%3A%2F%2Ffonts.googleapis.com%2Fcss%3Ffamily%3DArchitects%2BDaughter;" vertex="1" connectable="0" parent="k-KUDZji_HKv26gU6EQP-55">
          <mxGeometry x="0.1074" relative="1" as="geometry">
            <mxPoint y="-10" as="offset" />
          </mxGeometry>
        </mxCell>
        <mxCell id="k-KUDZji_HKv26gU6EQP-44" value="Has User Selected Topping Mustard" style="ellipse;whiteSpace=wrap;html=1;aspect=fixed;sketch=1;hachureGap=4;jiggle=2;curveFitting=1;fontFamily=Architects Daughter;fontSource=https%3A%2F%2Ffonts.googleapis.com%2Fcss%3Ffamily%3DArchitects%2BDaughter;" vertex="1" parent="1">
          <mxGeometry x="1360" y="1170" width="80" height="80" as="geometry" />
        </mxCell>
        <mxCell id="k-KUDZji_HKv26gU6EQP-50" style="edgeStyle=orthogonalEdgeStyle;rounded=0;sketch=1;hachureGap=4;jiggle=2;curveFitting=1;orthogonalLoop=1;jettySize=auto;html=1;exitX=0.5;exitY=1;exitDx=0;exitDy=0;entryX=0;entryY=0;entryDx=0;entryDy=0;fontFamily=Architects Daughter;fontSource=https%3A%2F%2Ffonts.googleapis.com%2Fcss%3Ffamily%3DArchitects%2BDaughter;" edge="1" parent="1" source="k-KUDZji_HKv26gU6EQP-47" target="k-KUDZji_HKv26gU6EQP-44">
          <mxGeometry relative="1" as="geometry" />
        </mxCell>
        <mxCell id="k-KUDZji_HKv26gU6EQP-47" value="Add Topping Choice Ketchup" style="ellipse;whiteSpace=wrap;html=1;aspect=fixed;sketch=1;hachureGap=4;jiggle=2;curveFitting=1;fontFamily=Architects Daughter;fontSource=https%3A%2F%2Ffonts.googleapis.com%2Fcss%3Ffamily%3DArchitects%2BDaughter;" vertex="1" parent="1">
          <mxGeometry x="1150" y="980" width="80" height="80" as="geometry" />
        </mxCell>
        <mxCell id="k-KUDZji_HKv26gU6EQP-57" style="edgeStyle=orthogonalEdgeStyle;rounded=0;sketch=1;hachureGap=4;jiggle=2;curveFitting=1;orthogonalLoop=1;jettySize=auto;html=1;exitX=0.5;exitY=1;exitDx=0;exitDy=0;entryX=0;entryY=0;entryDx=0;entryDy=0;fontFamily=Architects Daughter;fontSource=https%3A%2F%2Ffonts.googleapis.com%2Fcss%3Ffamily%3DArchitects%2BDaughter;" edge="1" parent="1" source="k-KUDZji_HKv26gU6EQP-51" target="k-KUDZji_HKv26gU6EQP-54">
          <mxGeometry relative="1" as="geometry" />
        </mxCell>
        <mxCell id="k-KUDZji_HKv26gU6EQP-51" value="Add Topping Choice Mustard" style="ellipse;whiteSpace=wrap;html=1;aspect=fixed;sketch=1;hachureGap=4;jiggle=2;curveFitting=1;fontFamily=Architects Daughter;fontSource=https%3A%2F%2Ffonts.googleapis.com%2Fcss%3Ffamily%3DArchitects%2BDaughter;" vertex="1" parent="1">
          <mxGeometry x="1150" y="1170" width="80" height="80" as="geometry" />
        </mxCell>
        <mxCell id="k-KUDZji_HKv26gU6EQP-58" style="edgeStyle=orthogonalEdgeStyle;rounded=0;sketch=1;hachureGap=4;jiggle=2;curveFitting=1;orthogonalLoop=1;jettySize=auto;html=1;exitX=1;exitY=0.5;exitDx=0;exitDy=0;entryX=1;entryY=0.5;entryDx=0;entryDy=0;fontFamily=Architects Daughter;fontSource=https%3A%2F%2Ffonts.googleapis.com%2Fcss%3Ffamily%3DArchitects%2BDaughter;" edge="1" parent="1" source="k-KUDZji_HKv26gU6EQP-54" target="k-KUDZji_HKv26gU6EQP-36">
          <mxGeometry relative="1" as="geometry" />
        </mxCell>
        <mxCell id="k-KUDZji_HKv26gU6EQP-59" value="No" style="edgeLabel;html=1;align=center;verticalAlign=middle;resizable=0;points=[];sketch=1;hachureGap=4;jiggle=2;curveFitting=1;fontFamily=Architects Daughter;fontSource=https%3A%2F%2Ffonts.googleapis.com%2Fcss%3Ffamily%3DArchitects%2BDaughter;" vertex="1" connectable="0" parent="k-KUDZji_HKv26gU6EQP-58">
          <mxGeometry x="-0.7879" y="-2" relative="1" as="geometry">
            <mxPoint as="offset" />
          </mxGeometry>
        </mxCell>
        <mxCell id="k-KUDZji_HKv26gU6EQP-62" style="edgeStyle=orthogonalEdgeStyle;rounded=0;sketch=1;hachureGap=4;jiggle=2;curveFitting=1;orthogonalLoop=1;jettySize=auto;html=1;exitX=0;exitY=0.5;exitDx=0;exitDy=0;entryX=1;entryY=0.5;entryDx=0;entryDy=0;fontFamily=Architects Daughter;fontSource=https%3A%2F%2Ffonts.googleapis.com%2Fcss%3Ffamily%3DArchitects%2BDaughter;" edge="1" parent="1" source="k-KUDZji_HKv26gU6EQP-54" target="k-KUDZji_HKv26gU6EQP-61">
          <mxGeometry relative="1" as="geometry" />
        </mxCell>
        <mxCell id="k-KUDZji_HKv26gU6EQP-63" value="Yes" style="edgeLabel;html=1;align=center;verticalAlign=middle;resizable=0;points=[];sketch=1;hachureGap=4;jiggle=2;curveFitting=1;fontFamily=Architects Daughter;fontSource=https%3A%2F%2Ffonts.googleapis.com%2Fcss%3Ffamily%3DArchitects%2BDaughter;" vertex="1" connectable="0" parent="k-KUDZji_HKv26gU6EQP-62">
          <mxGeometry x="0.0253" y="2" relative="1" as="geometry">
            <mxPoint as="offset" />
          </mxGeometry>
        </mxCell>
        <mxCell id="k-KUDZji_HKv26gU6EQP-54" value="Has User Confirmed Toppings?" style="ellipse;whiteSpace=wrap;html=1;aspect=fixed;sketch=1;hachureGap=4;jiggle=2;curveFitting=1;fontFamily=Architects Daughter;fontSource=https%3A%2F%2Ffonts.googleapis.com%2Fcss%3Ffamily%3DArchitects%2BDaughter;" vertex="1" parent="1">
          <mxGeometry x="1360" y="1340" width="80" height="80" as="geometry" />
        </mxCell>
        <mxCell id="k-KUDZji_HKv26gU6EQP-65" style="edgeStyle=orthogonalEdgeStyle;rounded=0;sketch=1;hachureGap=4;jiggle=2;curveFitting=1;orthogonalLoop=1;jettySize=auto;html=1;exitX=0.5;exitY=0;exitDx=0;exitDy=0;entryX=0.5;entryY=1;entryDx=0;entryDy=0;fontFamily=Architects Daughter;fontSource=https%3A%2F%2Ffonts.googleapis.com%2Fcss%3Ffamily%3DArchitects%2BDaughter;" edge="1" parent="1" source="k-KUDZji_HKv26gU6EQP-61" target="k-KUDZji_HKv26gU6EQP-64">
          <mxGeometry relative="1" as="geometry" />
        </mxCell>
        <mxCell id="k-KUDZji_HKv26gU6EQP-66" value="Yes" style="edgeLabel;html=1;align=center;verticalAlign=middle;resizable=0;points=[];sketch=1;hachureGap=4;jiggle=2;curveFitting=1;fontFamily=Architects Daughter;fontSource=https%3A%2F%2Ffonts.googleapis.com%2Fcss%3Ffamily%3DArchitects%2BDaughter;" vertex="1" connectable="0" parent="k-KUDZji_HKv26gU6EQP-65">
          <mxGeometry x="0.1449" y="-4" relative="1" as="geometry">
            <mxPoint x="-4" y="11" as="offset" />
          </mxGeometry>
        </mxCell>
        <mxCell id="k-KUDZji_HKv26gU6EQP-68" style="edgeStyle=orthogonalEdgeStyle;rounded=0;sketch=1;hachureGap=4;jiggle=2;curveFitting=1;orthogonalLoop=1;jettySize=auto;html=1;exitX=0;exitY=0.5;exitDx=0;exitDy=0;entryX=1;entryY=0.5;entryDx=0;entryDy=0;fontFamily=Architects Daughter;fontSource=https%3A%2F%2Ffonts.googleapis.com%2Fcss%3Ffamily%3DArchitects%2BDaughter;" edge="1" parent="1" source="k-KUDZji_HKv26gU6EQP-61" target="k-KUDZji_HKv26gU6EQP-67">
          <mxGeometry relative="1" as="geometry" />
        </mxCell>
        <mxCell id="k-KUDZji_HKv26gU6EQP-69" value="No" style="edgeLabel;html=1;align=center;verticalAlign=middle;resizable=0;points=[];sketch=1;hachureGap=4;jiggle=2;curveFitting=1;fontFamily=Architects Daughter;fontSource=https%3A%2F%2Ffonts.googleapis.com%2Fcss%3Ffamily%3DArchitects%2BDaughter;" vertex="1" connectable="0" parent="k-KUDZji_HKv26gU6EQP-68">
          <mxGeometry x="0.0519" relative="1" as="geometry">
            <mxPoint as="offset" />
          </mxGeometry>
        </mxCell>
        <mxCell id="k-KUDZji_HKv26gU6EQP-61" value="Did User Select Regular?" style="ellipse;whiteSpace=wrap;html=1;aspect=fixed;sketch=1;hachureGap=4;jiggle=2;curveFitting=1;fontFamily=Architects Daughter;fontSource=https%3A%2F%2Ffonts.googleapis.com%2Fcss%3Ffamily%3DArchitects%2BDaughter;" vertex="1" parent="1">
          <mxGeometry x="1030" y="1340" width="80" height="80" as="geometry" />
        </mxCell>
        <mxCell id="k-KUDZji_HKv26gU6EQP-72" style="edgeStyle=orthogonalEdgeStyle;rounded=0;sketch=1;hachureGap=4;jiggle=2;curveFitting=1;orthogonalLoop=1;jettySize=auto;html=1;exitX=0;exitY=0.5;exitDx=0;exitDy=0;entryX=1;entryY=0.5;entryDx=0;entryDy=0;fontFamily=Architects Daughter;fontSource=https%3A%2F%2Ffonts.googleapis.com%2Fcss%3Ffamily%3DArchitects%2BDaughter;" edge="1" parent="1" source="k-KUDZji_HKv26gU6EQP-64" target="k-KUDZji_HKv26gU6EQP-71">
          <mxGeometry relative="1" as="geometry" />
        </mxCell>
        <mxCell id="k-KUDZji_HKv26gU6EQP-64" value="Dispense Regular Hotdog Onto Roller" style="ellipse;whiteSpace=wrap;html=1;aspect=fixed;sketch=1;hachureGap=4;jiggle=2;curveFitting=1;fontFamily=Architects Daughter;fontSource=https%3A%2F%2Ffonts.googleapis.com%2Fcss%3Ffamily%3DArchitects%2BDaughter;" vertex="1" parent="1">
          <mxGeometry x="1030" y="1170" width="80" height="80" as="geometry" />
        </mxCell>
        <mxCell id="k-KUDZji_HKv26gU6EQP-73" style="edgeStyle=orthogonalEdgeStyle;rounded=0;sketch=1;hachureGap=4;jiggle=2;curveFitting=1;orthogonalLoop=1;jettySize=auto;html=1;exitX=0.5;exitY=0;exitDx=0;exitDy=0;entryX=0.5;entryY=1;entryDx=0;entryDy=0;fontFamily=Architects Daughter;fontSource=https%3A%2F%2Ffonts.googleapis.com%2Fcss%3Ffamily%3DArchitects%2BDaughter;" edge="1" parent="1" source="k-KUDZji_HKv26gU6EQP-67" target="k-KUDZji_HKv26gU6EQP-71">
          <mxGeometry relative="1" as="geometry" />
        </mxCell>
        <mxCell id="k-KUDZji_HKv26gU6EQP-67" value="Dispense Cheese Hotdog Onto Roller" style="ellipse;whiteSpace=wrap;html=1;aspect=fixed;sketch=1;hachureGap=4;jiggle=2;curveFitting=1;fontFamily=Architects Daughter;fontSource=https%3A%2F%2Ffonts.googleapis.com%2Fcss%3Ffamily%3DArchitects%2BDaughter;" vertex="1" parent="1">
          <mxGeometry x="860" y="1340" width="80" height="80" as="geometry" />
        </mxCell>
        <mxCell id="k-KUDZji_HKv26gU6EQP-75" style="edgeStyle=orthogonalEdgeStyle;rounded=0;sketch=1;hachureGap=4;jiggle=2;curveFitting=1;orthogonalLoop=1;jettySize=auto;html=1;exitX=0.5;exitY=0;exitDx=0;exitDy=0;entryX=0.5;entryY=1;entryDx=0;entryDy=0;fontFamily=Architects Daughter;fontSource=https%3A%2F%2Ffonts.googleapis.com%2Fcss%3Ffamily%3DArchitects%2BDaughter;" edge="1" parent="1" source="k-KUDZji_HKv26gU6EQP-71" target="k-KUDZji_HKv26gU6EQP-74">
          <mxGeometry relative="1" as="geometry" />
        </mxCell>
        <mxCell id="k-KUDZji_HKv26gU6EQP-71" value="Heat and Spin Roller" style="ellipse;whiteSpace=wrap;html=1;aspect=fixed;sketch=1;hachureGap=4;jiggle=2;curveFitting=1;fontFamily=Architects Daughter;fontSource=https%3A%2F%2Ffonts.googleapis.com%2Fcss%3Ffamily%3DArchitects%2BDaughter;" vertex="1" parent="1">
          <mxGeometry x="860" y="1170" width="80" height="80" as="geometry" />
        </mxCell>
        <mxCell id="k-KUDZji_HKv26gU6EQP-76" style="edgeStyle=orthogonalEdgeStyle;rounded=0;sketch=1;hachureGap=4;jiggle=2;curveFitting=1;orthogonalLoop=1;jettySize=auto;html=1;exitX=0;exitY=0.5;exitDx=0;exitDy=0;entryX=0;entryY=0.5;entryDx=0;entryDy=0;fontFamily=Architects Daughter;fontSource=https%3A%2F%2Ffonts.googleapis.com%2Fcss%3Ffamily%3DArchitects%2BDaughter;" edge="1" parent="1" source="k-KUDZji_HKv26gU6EQP-74" target="k-KUDZji_HKv26gU6EQP-71">
          <mxGeometry relative="1" as="geometry" />
        </mxCell>
        <mxCell id="k-KUDZji_HKv26gU6EQP-77" value="No" style="edgeLabel;html=1;align=center;verticalAlign=middle;resizable=0;points=[];sketch=1;hachureGap=4;jiggle=2;curveFitting=1;fontFamily=Architects Daughter;fontSource=https%3A%2F%2Ffonts.googleapis.com%2Fcss%3Ffamily%3DArchitects%2BDaughter;" vertex="1" connectable="0" parent="k-KUDZji_HKv26gU6EQP-76">
          <mxGeometry x="-0.0061" y="2" relative="1" as="geometry">
            <mxPoint as="offset" />
          </mxGeometry>
        </mxCell>
        <mxCell id="k-KUDZji_HKv26gU6EQP-79" style="edgeStyle=orthogonalEdgeStyle;rounded=0;sketch=1;hachureGap=4;jiggle=2;curveFitting=1;orthogonalLoop=1;jettySize=auto;html=1;exitX=0.5;exitY=0;exitDx=0;exitDy=0;entryX=0.5;entryY=1;entryDx=0;entryDy=0;fontFamily=Architects Daughter;fontSource=https%3A%2F%2Ffonts.googleapis.com%2Fcss%3Ffamily%3DArchitects%2BDaughter;" edge="1" parent="1" source="k-KUDZji_HKv26gU6EQP-74" target="k-KUDZji_HKv26gU6EQP-78">
          <mxGeometry relative="1" as="geometry" />
        </mxCell>
        <mxCell id="k-KUDZji_HKv26gU6EQP-80" value="Yes" style="edgeLabel;html=1;align=center;verticalAlign=middle;resizable=0;points=[];sketch=1;hachureGap=4;jiggle=2;curveFitting=1;fontFamily=Architects Daughter;fontSource=https%3A%2F%2Ffonts.googleapis.com%2Fcss%3Ffamily%3DArchitects%2BDaughter;" vertex="1" connectable="0" parent="k-KUDZji_HKv26gU6EQP-79">
          <mxGeometry x="-0.0692" relative="1" as="geometry">
            <mxPoint as="offset" />
          </mxGeometry>
        </mxCell>
        <mxCell id="k-KUDZji_HKv26gU6EQP-74" value="Is Hotdog Internal Temp &amp;gt;= 160F" style="ellipse;whiteSpace=wrap;html=1;aspect=fixed;sketch=1;hachureGap=4;jiggle=2;curveFitting=1;fontFamily=Architects Daughter;fontSource=https%3A%2F%2Ffonts.googleapis.com%2Fcss%3Ffamily%3DArchitects%2BDaughter;" vertex="1" parent="1">
          <mxGeometry x="860" y="1040" width="80" height="80" as="geometry" />
        </mxCell>
        <mxCell id="k-KUDZji_HKv26gU6EQP-82" style="edgeStyle=orthogonalEdgeStyle;rounded=0;sketch=1;hachureGap=4;jiggle=2;curveFitting=1;orthogonalLoop=1;jettySize=auto;html=1;exitX=0.5;exitY=0;exitDx=0;exitDy=0;entryX=0.5;entryY=1;entryDx=0;entryDy=0;fontFamily=Architects Daughter;fontSource=https%3A%2F%2Ffonts.googleapis.com%2Fcss%3Ffamily%3DArchitects%2BDaughter;" edge="1" parent="1" source="k-KUDZji_HKv26gU6EQP-78" target="k-KUDZji_HKv26gU6EQP-81">
          <mxGeometry relative="1" as="geometry" />
        </mxCell>
        <mxCell id="k-KUDZji_HKv26gU6EQP-78" value="Move Bun Onto Paper Tray" style="ellipse;whiteSpace=wrap;html=1;aspect=fixed;sketch=1;hachureGap=4;jiggle=2;curveFitting=1;fontFamily=Architects Daughter;fontSource=https%3A%2F%2Ffonts.googleapis.com%2Fcss%3Ffamily%3DArchitects%2BDaughter;" vertex="1" parent="1">
          <mxGeometry x="860" y="890" width="80" height="80" as="geometry" />
        </mxCell>
        <mxCell id="k-KUDZji_HKv26gU6EQP-81" value="Move Hotdog Onto Bun" style="ellipse;whiteSpace=wrap;html=1;aspect=fixed;sketch=1;hachureGap=4;jiggle=2;curveFitting=1;fontFamily=Architects Daughter;fontSource=https%3A%2F%2Ffonts.googleapis.com%2Fcss%3Ffamily%3DArchitects%2BDaughter;" vertex="1" parent="1">
          <mxGeometry x="860" y="760" width="80" height="80" as="geometry" />
        </mxCell>
        <mxCell id="k-KUDZji_HKv26gU6EQP-86" style="edgeStyle=orthogonalEdgeStyle;rounded=0;sketch=1;hachureGap=4;jiggle=2;curveFitting=1;orthogonalLoop=1;jettySize=auto;html=1;exitX=0.5;exitY=1;exitDx=0;exitDy=0;fontFamily=Architects Daughter;fontSource=https%3A%2F%2Ffonts.googleapis.com%2Fcss%3Ffamily%3DArchitects%2BDaughter;" edge="1" parent="1" source="k-KUDZji_HKv26gU6EQP-83" target="k-KUDZji_HKv26gU6EQP-85">
          <mxGeometry relative="1" as="geometry" />
        </mxCell>
        <mxCell id="k-KUDZji_HKv26gU6EQP-87" value="No" style="edgeLabel;html=1;align=center;verticalAlign=middle;resizable=0;points=[];sketch=1;hachureGap=4;jiggle=2;curveFitting=1;fontFamily=Architects Daughter;fontSource=https%3A%2F%2Ffonts.googleapis.com%2Fcss%3Ffamily%3DArchitects%2BDaughter;" vertex="1" connectable="0" parent="k-KUDZji_HKv26gU6EQP-86">
          <mxGeometry x="-0.0684" relative="1" as="geometry">
            <mxPoint as="offset" />
          </mxGeometry>
        </mxCell>
        <mxCell id="k-KUDZji_HKv26gU6EQP-89" style="edgeStyle=orthogonalEdgeStyle;rounded=0;sketch=1;hachureGap=4;jiggle=2;curveFitting=1;orthogonalLoop=1;jettySize=auto;html=1;exitX=0;exitY=0.5;exitDx=0;exitDy=0;entryX=1;entryY=0.5;entryDx=0;entryDy=0;fontFamily=Architects Daughter;fontSource=https%3A%2F%2Ffonts.googleapis.com%2Fcss%3Ffamily%3DArchitects%2BDaughter;" edge="1" parent="1" source="k-KUDZji_HKv26gU6EQP-83" target="k-KUDZji_HKv26gU6EQP-88">
          <mxGeometry relative="1" as="geometry" />
        </mxCell>
        <mxCell id="k-KUDZji_HKv26gU6EQP-90" value="Yes" style="edgeLabel;html=1;align=center;verticalAlign=middle;resizable=0;points=[];sketch=1;hachureGap=4;jiggle=2;curveFitting=1;fontFamily=Architects Daughter;fontSource=https%3A%2F%2Ffonts.googleapis.com%2Fcss%3Ffamily%3DArchitects%2BDaughter;" vertex="1" connectable="0" parent="k-KUDZji_HKv26gU6EQP-89">
          <mxGeometry x="-0.1018" y="1" relative="1" as="geometry">
            <mxPoint as="offset" />
          </mxGeometry>
        </mxCell>
        <mxCell id="k-KUDZji_HKv26gU6EQP-83" value="Did User Select Mustard as a Topping?" style="ellipse;whiteSpace=wrap;html=1;aspect=fixed;sketch=1;hachureGap=4;jiggle=2;curveFitting=1;fontFamily=Architects Daughter;fontSource=https%3A%2F%2Ffonts.googleapis.com%2Fcss%3Ffamily%3DArchitects%2BDaughter;" vertex="1" parent="1">
          <mxGeometry x="680" y="760" width="80" height="80" as="geometry" />
        </mxCell>
        <mxCell id="k-KUDZji_HKv26gU6EQP-84" style="edgeStyle=orthogonalEdgeStyle;rounded=0;sketch=1;hachureGap=4;jiggle=2;curveFitting=1;orthogonalLoop=1;jettySize=auto;html=1;exitX=0;exitY=0.5;exitDx=0;exitDy=0;entryX=1.043;entryY=0.51;entryDx=0;entryDy=0;entryPerimeter=0;fontFamily=Architects Daughter;fontSource=https%3A%2F%2Ffonts.googleapis.com%2Fcss%3Ffamily%3DArchitects%2BDaughter;" edge="1" parent="1" source="k-KUDZji_HKv26gU6EQP-81" target="k-KUDZji_HKv26gU6EQP-83">
          <mxGeometry relative="1" as="geometry" />
        </mxCell>
        <mxCell id="k-KUDZji_HKv26gU6EQP-94" style="edgeStyle=orthogonalEdgeStyle;rounded=0;sketch=1;hachureGap=4;jiggle=2;curveFitting=1;orthogonalLoop=1;jettySize=auto;html=1;exitX=0.5;exitY=1;exitDx=0;exitDy=0;entryX=0.5;entryY=0;entryDx=0;entryDy=0;fontFamily=Architects Daughter;fontSource=https%3A%2F%2Ffonts.googleapis.com%2Fcss%3Ffamily%3DArchitects%2BDaughter;" edge="1" parent="1" source="k-KUDZji_HKv26gU6EQP-85" target="k-KUDZji_HKv26gU6EQP-93">
          <mxGeometry relative="1" as="geometry" />
        </mxCell>
        <mxCell id="k-KUDZji_HKv26gU6EQP-95" value="No" style="edgeLabel;html=1;align=center;verticalAlign=middle;resizable=0;points=[];sketch=1;hachureGap=4;jiggle=2;curveFitting=1;fontFamily=Architects Daughter;fontSource=https%3A%2F%2Ffonts.googleapis.com%2Fcss%3Ffamily%3DArchitects%2BDaughter;" vertex="1" connectable="0" parent="k-KUDZji_HKv26gU6EQP-94">
          <mxGeometry x="0.0577" y="1" relative="1" as="geometry">
            <mxPoint as="offset" />
          </mxGeometry>
        </mxCell>
        <mxCell id="k-KUDZji_HKv26gU6EQP-96" style="edgeStyle=orthogonalEdgeStyle;rounded=0;sketch=1;hachureGap=4;jiggle=2;curveFitting=1;orthogonalLoop=1;jettySize=auto;html=1;exitX=0;exitY=0.5;exitDx=0;exitDy=0;entryX=1;entryY=0.5;entryDx=0;entryDy=0;fontFamily=Architects Daughter;fontSource=https%3A%2F%2Ffonts.googleapis.com%2Fcss%3Ffamily%3DArchitects%2BDaughter;" edge="1" parent="1" source="k-KUDZji_HKv26gU6EQP-85" target="k-KUDZji_HKv26gU6EQP-92">
          <mxGeometry relative="1" as="geometry" />
        </mxCell>
        <mxCell id="k-KUDZji_HKv26gU6EQP-97" value="Yes" style="edgeLabel;html=1;align=center;verticalAlign=middle;resizable=0;points=[];sketch=1;hachureGap=4;jiggle=2;curveFitting=1;fontFamily=Architects Daughter;fontSource=https%3A%2F%2Ffonts.googleapis.com%2Fcss%3Ffamily%3DArchitects%2BDaughter;" vertex="1" connectable="0" parent="k-KUDZji_HKv26gU6EQP-96">
          <mxGeometry x="0.074" y="-1" relative="1" as="geometry">
            <mxPoint as="offset" />
          </mxGeometry>
        </mxCell>
        <mxCell id="k-KUDZji_HKv26gU6EQP-85" value="Did User Select Relish as a&amp;nbsp;&lt;div&gt;Topping?&lt;/div&gt;" style="ellipse;whiteSpace=wrap;html=1;aspect=fixed;sketch=1;hachureGap=4;jiggle=2;curveFitting=1;fontFamily=Architects Daughter;fontSource=https%3A%2F%2Ffonts.googleapis.com%2Fcss%3Ffamily%3DArchitects%2BDaughter;" vertex="1" parent="1">
          <mxGeometry x="680" y="900" width="80" height="80" as="geometry" />
        </mxCell>
        <mxCell id="k-KUDZji_HKv26gU6EQP-91" style="edgeStyle=orthogonalEdgeStyle;rounded=0;sketch=1;hachureGap=4;jiggle=2;curveFitting=1;orthogonalLoop=1;jettySize=auto;html=1;exitX=0.5;exitY=1;exitDx=0;exitDy=0;entryX=0;entryY=0;entryDx=0;entryDy=0;fontFamily=Architects Daughter;fontSource=https%3A%2F%2Ffonts.googleapis.com%2Fcss%3Ffamily%3DArchitects%2BDaughter;" edge="1" parent="1" source="k-KUDZji_HKv26gU6EQP-88" target="k-KUDZji_HKv26gU6EQP-85">
          <mxGeometry relative="1" as="geometry" />
        </mxCell>
        <mxCell id="k-KUDZji_HKv26gU6EQP-88" value="Dispense Mustard Onto Hotdog" style="ellipse;whiteSpace=wrap;html=1;aspect=fixed;sketch=1;hachureGap=4;jiggle=2;curveFitting=1;fontFamily=Architects Daughter;fontSource=https%3A%2F%2Ffonts.googleapis.com%2Fcss%3Ffamily%3DArchitects%2BDaughter;" vertex="1" parent="1">
          <mxGeometry x="530" y="760" width="80" height="80" as="geometry" />
        </mxCell>
        <mxCell id="k-KUDZji_HKv26gU6EQP-98" style="edgeStyle=orthogonalEdgeStyle;rounded=0;sketch=1;hachureGap=4;jiggle=2;curveFitting=1;orthogonalLoop=1;jettySize=auto;html=1;exitX=0.5;exitY=1;exitDx=0;exitDy=0;entryX=0;entryY=0;entryDx=0;entryDy=0;fontFamily=Architects Daughter;fontSource=https%3A%2F%2Ffonts.googleapis.com%2Fcss%3Ffamily%3DArchitects%2BDaughter;" edge="1" parent="1" source="k-KUDZji_HKv26gU6EQP-92" target="k-KUDZji_HKv26gU6EQP-93">
          <mxGeometry relative="1" as="geometry" />
        </mxCell>
        <mxCell id="k-KUDZji_HKv26gU6EQP-92" value="Dispense Relish Onto Hotdog" style="ellipse;whiteSpace=wrap;html=1;aspect=fixed;sketch=1;hachureGap=4;jiggle=2;curveFitting=1;fontFamily=Architects Daughter;fontSource=https%3A%2F%2Ffonts.googleapis.com%2Fcss%3Ffamily%3DArchitects%2BDaughter;" vertex="1" parent="1">
          <mxGeometry x="530" y="900" width="80" height="80" as="geometry" />
        </mxCell>
        <mxCell id="k-KUDZji_HKv26gU6EQP-100" style="edgeStyle=orthogonalEdgeStyle;rounded=0;sketch=1;hachureGap=4;jiggle=2;curveFitting=1;orthogonalLoop=1;jettySize=auto;html=1;exitX=0;exitY=0.5;exitDx=0;exitDy=0;entryX=1;entryY=0.5;entryDx=0;entryDy=0;fontFamily=Architects Daughter;fontSource=https%3A%2F%2Ffonts.googleapis.com%2Fcss%3Ffamily%3DArchitects%2BDaughter;" edge="1" parent="1" source="k-KUDZji_HKv26gU6EQP-93" target="k-KUDZji_HKv26gU6EQP-99">
          <mxGeometry relative="1" as="geometry" />
        </mxCell>
        <mxCell id="k-KUDZji_HKv26gU6EQP-101" value="Yes" style="edgeLabel;html=1;align=center;verticalAlign=middle;resizable=0;points=[];sketch=1;hachureGap=4;jiggle=2;curveFitting=1;fontFamily=Architects Daughter;fontSource=https%3A%2F%2Ffonts.googleapis.com%2Fcss%3Ffamily%3DArchitects%2BDaughter;" vertex="1" connectable="0" parent="k-KUDZji_HKv26gU6EQP-100">
          <mxGeometry x="0.0007" relative="1" as="geometry">
            <mxPoint as="offset" />
          </mxGeometry>
        </mxCell>
        <mxCell id="k-KUDZji_HKv26gU6EQP-103" style="edgeStyle=orthogonalEdgeStyle;rounded=0;sketch=1;hachureGap=4;jiggle=2;curveFitting=1;orthogonalLoop=1;jettySize=auto;html=1;exitX=0.5;exitY=1;exitDx=0;exitDy=0;entryX=0.5;entryY=0;entryDx=0;entryDy=0;fontFamily=Architects Daughter;fontSource=https%3A%2F%2Ffonts.googleapis.com%2Fcss%3Ffamily%3DArchitects%2BDaughter;" edge="1" parent="1" source="k-KUDZji_HKv26gU6EQP-93" target="k-KUDZji_HKv26gU6EQP-102">
          <mxGeometry relative="1" as="geometry" />
        </mxCell>
        <mxCell id="k-KUDZji_HKv26gU6EQP-104" value="No" style="edgeLabel;html=1;align=center;verticalAlign=middle;resizable=0;points=[];sketch=1;hachureGap=4;jiggle=2;curveFitting=1;fontFamily=Architects Daughter;fontSource=https%3A%2F%2Ffonts.googleapis.com%2Fcss%3Ffamily%3DArchitects%2BDaughter;" vertex="1" connectable="0" parent="k-KUDZji_HKv26gU6EQP-103">
          <mxGeometry x="-0.0598" relative="1" as="geometry">
            <mxPoint as="offset" />
          </mxGeometry>
        </mxCell>
        <mxCell id="k-KUDZji_HKv26gU6EQP-93" value="Did User Select Ketchup as a Topping?" style="ellipse;whiteSpace=wrap;html=1;aspect=fixed;sketch=1;hachureGap=4;jiggle=2;curveFitting=1;fontFamily=Architects Daughter;fontSource=https%3A%2F%2Ffonts.googleapis.com%2Fcss%3Ffamily%3DArchitects%2BDaughter;" vertex="1" parent="1">
          <mxGeometry x="680" y="1060" width="80" height="80" as="geometry" />
        </mxCell>
        <mxCell id="k-KUDZji_HKv26gU6EQP-105" style="edgeStyle=orthogonalEdgeStyle;rounded=0;sketch=1;hachureGap=4;jiggle=2;curveFitting=1;orthogonalLoop=1;jettySize=auto;html=1;exitX=0.5;exitY=1;exitDx=0;exitDy=0;entryX=0;entryY=0;entryDx=0;entryDy=0;fontFamily=Architects Daughter;fontSource=https%3A%2F%2Ffonts.googleapis.com%2Fcss%3Ffamily%3DArchitects%2BDaughter;" edge="1" parent="1" source="k-KUDZji_HKv26gU6EQP-99" target="k-KUDZji_HKv26gU6EQP-102">
          <mxGeometry relative="1" as="geometry" />
        </mxCell>
        <mxCell id="k-KUDZji_HKv26gU6EQP-99" value="Dispense Ketchup Onto Hotdog" style="ellipse;whiteSpace=wrap;html=1;aspect=fixed;sketch=1;hachureGap=4;jiggle=2;curveFitting=1;fontFamily=Architects Daughter;fontSource=https%3A%2F%2Ffonts.googleapis.com%2Fcss%3Ffamily%3DArchitects%2BDaughter;" vertex="1" parent="1">
          <mxGeometry x="530" y="1060" width="80" height="80" as="geometry" />
        </mxCell>
        <mxCell id="k-KUDZji_HKv26gU6EQP-107" style="edgeStyle=orthogonalEdgeStyle;rounded=0;sketch=1;hachureGap=4;jiggle=2;curveFitting=1;orthogonalLoop=1;jettySize=auto;html=1;exitX=0.5;exitY=1;exitDx=0;exitDy=0;entryX=0.5;entryY=0;entryDx=0;entryDy=0;fontFamily=Architects Daughter;fontSource=https%3A%2F%2Ffonts.googleapis.com%2Fcss%3Ffamily%3DArchitects%2BDaughter;" edge="1" parent="1" source="k-KUDZji_HKv26gU6EQP-102" target="k-KUDZji_HKv26gU6EQP-106">
          <mxGeometry relative="1" as="geometry" />
        </mxCell>
        <mxCell id="k-KUDZji_HKv26gU6EQP-102" value="Move Finished Hotdog Into Collection Area" style="ellipse;whiteSpace=wrap;html=1;aspect=fixed;sketch=1;hachureGap=4;jiggle=2;curveFitting=1;fontFamily=Architects Daughter;fontSource=https%3A%2F%2Ffonts.googleapis.com%2Fcss%3Ffamily%3DArchitects%2BDaughter;" vertex="1" parent="1">
          <mxGeometry x="680" y="1190" width="90" height="90" as="geometry" />
        </mxCell>
        <mxCell id="k-KUDZji_HKv26gU6EQP-109" style="edgeStyle=orthogonalEdgeStyle;rounded=0;sketch=1;hachureGap=4;jiggle=2;curveFitting=1;orthogonalLoop=1;jettySize=auto;html=1;exitX=0;exitY=0.5;exitDx=0;exitDy=0;entryX=1;entryY=0.5;entryDx=0;entryDy=0;fontFamily=Architects Daughter;fontSource=https%3A%2F%2Ffonts.googleapis.com%2Fcss%3Ffamily%3DArchitects%2BDaughter;" edge="1" parent="1" source="k-KUDZji_HKv26gU6EQP-106" target="k-KUDZji_HKv26gU6EQP-108">
          <mxGeometry relative="1" as="geometry" />
        </mxCell>
        <mxCell id="k-KUDZji_HKv26gU6EQP-106" value="Open Collection Door" style="ellipse;whiteSpace=wrap;html=1;aspect=fixed;sketch=1;hachureGap=4;jiggle=2;curveFitting=1;fontFamily=Architects Daughter;fontSource=https%3A%2F%2Ffonts.googleapis.com%2Fcss%3Ffamily%3DArchitects%2BDaughter;" vertex="1" parent="1">
          <mxGeometry x="685" y="1340" width="80" height="80" as="geometry" />
        </mxCell>
        <mxCell id="k-KUDZji_HKv26gU6EQP-112" style="edgeStyle=orthogonalEdgeStyle;rounded=0;sketch=1;hachureGap=4;jiggle=2;curveFitting=1;orthogonalLoop=1;jettySize=auto;html=1;exitX=0;exitY=0;exitDx=0;exitDy=0;fontFamily=Architects Daughter;fontSource=https%3A%2F%2Ffonts.googleapis.com%2Fcss%3Ffamily%3DArchitects%2BDaughter;entryX=0.037;entryY=0.704;entryDx=0;entryDy=0;entryPerimeter=0;" edge="1" parent="1" source="k-KUDZji_HKv26gU6EQP-108" target="k-KUDZji_HKv26gU6EQP-108">
          <mxGeometry relative="1" as="geometry">
            <mxPoint x="430" y="1400" as="targetPoint" />
            <Array as="points">
              <mxPoint x="430" y="1348" />
              <mxPoint x="430" y="1398" />
            </Array>
          </mxGeometry>
        </mxCell>
        <mxCell id="k-KUDZji_HKv26gU6EQP-113" value="Yes" style="edgeLabel;html=1;align=center;verticalAlign=middle;resizable=0;points=[];sketch=1;hachureGap=4;jiggle=2;curveFitting=1;fontFamily=Architects Daughter;fontSource=https%3A%2F%2Ffonts.googleapis.com%2Fcss%3Ffamily%3DArchitects%2BDaughter;" vertex="1" connectable="0" parent="k-KUDZji_HKv26gU6EQP-112">
          <mxGeometry x="0.1106" relative="1" as="geometry">
            <mxPoint as="offset" />
          </mxGeometry>
        </mxCell>
        <mxCell id="k-KUDZji_HKv26gU6EQP-114" style="edgeStyle=orthogonalEdgeStyle;rounded=0;sketch=1;hachureGap=4;jiggle=2;curveFitting=1;orthogonalLoop=1;jettySize=auto;html=1;exitX=0.5;exitY=0;exitDx=0;exitDy=0;entryX=0.5;entryY=1;entryDx=0;entryDy=0;fontFamily=Architects Daughter;fontSource=https%3A%2F%2Ffonts.googleapis.com%2Fcss%3Ffamily%3DArchitects%2BDaughter;" edge="1" parent="1" source="k-KUDZji_HKv26gU6EQP-108" target="k-KUDZji_HKv26gU6EQP-111">
          <mxGeometry relative="1" as="geometry" />
        </mxCell>
        <mxCell id="k-KUDZji_HKv26gU6EQP-115" value="No" style="edgeLabel;html=1;align=center;verticalAlign=middle;resizable=0;points=[];sketch=1;hachureGap=4;jiggle=2;curveFitting=1;fontFamily=Architects Daughter;fontSource=https%3A%2F%2Ffonts.googleapis.com%2Fcss%3Ffamily%3DArchitects%2BDaughter;" vertex="1" connectable="0" parent="k-KUDZji_HKv26gU6EQP-114">
          <mxGeometry x="0.0394" relative="1" as="geometry">
            <mxPoint as="offset" />
          </mxGeometry>
        </mxCell>
        <mxCell id="k-KUDZji_HKv26gU6EQP-108" value="Is There Still Weight In Collection area" style="ellipse;whiteSpace=wrap;html=1;aspect=fixed;sketch=1;hachureGap=4;jiggle=2;curveFitting=1;fontFamily=Architects Daughter;fontSource=https%3A%2F%2Ffonts.googleapis.com%2Fcss%3Ffamily%3DArchitects%2BDaughter;" vertex="1" parent="1">
          <mxGeometry x="445" y="1335" width="90" height="90" as="geometry" />
        </mxCell>
        <mxCell id="k-KUDZji_HKv26gU6EQP-117" style="edgeStyle=orthogonalEdgeStyle;rounded=0;sketch=1;hachureGap=4;jiggle=2;curveFitting=1;orthogonalLoop=1;jettySize=auto;html=1;exitX=0;exitY=0.5;exitDx=0;exitDy=0;entryX=0.5;entryY=1;entryDx=0;entryDy=0;fontFamily=Architects Daughter;fontSource=https%3A%2F%2Ffonts.googleapis.com%2Fcss%3Ffamily%3DArchitects%2BDaughter;" edge="1" parent="1" source="k-KUDZji_HKv26gU6EQP-111" target="k-KUDZji_HKv26gU6EQP-116">
          <mxGeometry relative="1" as="geometry" />
        </mxCell>
        <mxCell id="k-KUDZji_HKv26gU6EQP-111" value="Close Collection Area Door" style="ellipse;whiteSpace=wrap;html=1;aspect=fixed;sketch=1;hachureGap=4;jiggle=2;curveFitting=1;fontFamily=Architects Daughter;fontSource=https%3A%2F%2Ffonts.googleapis.com%2Fcss%3Ffamily%3DArchitects%2BDaughter;" vertex="1" parent="1">
          <mxGeometry x="450" y="1195" width="80" height="80" as="geometry" />
        </mxCell>
        <mxCell id="k-KUDZji_HKv26gU6EQP-118" style="edgeStyle=orthogonalEdgeStyle;rounded=0;sketch=1;hachureGap=4;jiggle=2;curveFitting=1;orthogonalLoop=1;jettySize=auto;html=1;exitX=0.5;exitY=0;exitDx=0;exitDy=0;entryX=0;entryY=0.5;entryDx=0;entryDy=0;fontFamily=Architects Daughter;fontSource=https%3A%2F%2Ffonts.googleapis.com%2Fcss%3Ffamily%3DArchitects%2BDaughter;" edge="1" parent="1" source="k-KUDZji_HKv26gU6EQP-116" target="k-KUDZji_HKv26gU6EQP-1">
          <mxGeometry relative="1" as="geometry" />
        </mxCell>
        <mxCell id="k-KUDZji_HKv26gU6EQP-116" value="Clean Vending Machine" style="ellipse;whiteSpace=wrap;html=1;aspect=fixed;sketch=1;hachureGap=4;jiggle=2;curveFitting=1;fontFamily=Architects Daughter;fontSource=https%3A%2F%2Ffonts.googleapis.com%2Fcss%3Ffamily%3DArchitects%2BDaughter;" vertex="1" parent="1">
          <mxGeometry x="340" y="1060" width="80" height="80" as="geometry" />
        </mxCell>
      </root>
    </mxGraphModel>
  </diagram>
</mxfile>
